# Blender 4.2.3 LTS
# www.blender.org
mtllib Card.mtl
o Cube
v -1.000000 0.004934 1.340627
v 1.000000 -0.004934 1.340627
v -1.000000 -0.004934 1.340627
v 1.000000 0.004934 1.340627
v -1.000000 -0.004934 -1.347114
v 1.000000 0.004934 -1.347114
v -1.000000 0.004934 -1.347114
v 1.000000 -0.004934 -1.347114
v -0.593644 0.004934 -1.752332
v -0.593644 -0.004934 1.752332
v -0.593644 0.004934 1.752332
v -0.593644 -0.004934 -1.752332
v -0.593644 0.004934 1.340627
v -0.593644 -0.004934 1.340627
v -0.593644 -0.004934 -1.347114
v -0.593644 0.004934 -1.347114
v 0.619871 0.004934 1.752332
v 0.619871 -0.004934 -1.752332
v 0.619871 -0.004934 1.340627
v 0.619871 -0.004934 -1.347114
v 0.619871 0.004934 -1.752332
v 0.619871 -0.004934 1.752332
v 0.619871 0.004934 1.340627
v 0.619871 0.004934 -1.347114
v 1.000000 -0.004934 -1.347114
v 0.619871 -0.004934 -1.752332
v 0.971064 -0.004934 -1.502185
v 0.888663 -0.004934 -1.633646
v 0.765340 -0.004934 -1.721487
v 0.619871 0.004934 -1.752332
v 1.000000 0.004934 -1.347114
v 0.765340 0.004934 -1.721487
v 0.888663 0.004934 -1.633646
v 0.971064 0.004934 -1.502185
v 0.619871 -0.004934 1.752332
v 1.000000 -0.004934 1.340627
v 0.765340 -0.004934 1.720993
v 0.888663 -0.004934 1.631747
v 0.971064 -0.004934 1.498180
v 1.000000 0.004934 1.340627
v 0.619871 0.004934 1.752332
v 0.971064 0.004934 1.498180
v 0.888663 0.004934 1.631747
v 0.765340 0.004934 1.720993
v -0.593644 -0.004934 -1.752332
v -1.000000 -0.004934 -1.347114
v -0.749150 -0.004934 -1.721487
v -0.880981 -0.004934 -1.633646
v -0.969068 -0.004934 -1.502185
v -1.000000 0.004934 -1.347114
v -0.593644 0.004934 -1.752332
v -0.969068 0.004934 -1.502185
v -0.880981 0.004934 -1.633646
v -0.749150 0.004934 -1.721487
v -1.000000 -0.004934 1.340627
v -0.593644 -0.004934 1.752332
v -0.969068 -0.004934 1.498180
v -0.880981 -0.004934 1.631747
v -0.749150 -0.004934 1.720993
v -0.593644 0.004934 1.752332
v -1.000000 0.004934 1.340627
v -0.749150 0.004934 1.720993
v -0.880981 0.004934 1.631747
v -0.969068 0.004934 1.498180
vn -0.0000 1.0000 -0.0000
vn -0.0000 -1.0000 -0.0000
vn 1.0000 -0.0000 -0.0000
vn -1.0000 -0.0000 -0.0000
vn -0.0000 -0.0000 1.0000
vn -0.0000 -0.0000 -1.0000
vn 0.9830 -0.0000 -0.1834
vn 0.8473 -0.0000 -0.5311
vn 0.5802 -0.0000 -0.8145
vn 0.2074 -0.0000 -0.9783
vn -0.1976 -0.0000 0.9803
vn -0.5606 -0.0000 0.8281
vn -0.8348 -0.0000 0.5506
vn -0.9813 -0.0000 0.1927
vn 0.2106 -0.0000 0.9776
vn 0.5863 -0.0000 0.8101
vn 0.8511 -0.0000 0.5251
vn 0.9836 -0.0000 0.1806
vn -0.1946 -0.0000 -0.9809
vn -0.5545 -0.0000 -0.8322
vn -0.8307 -0.0000 -0.5566
vn -0.9807 -0.0000 -0.1956
vt 0.031971 0.190001
vt -0.146147 0.190001
vt -0.146147 0.087017
vt -0.077984 0.094856
vt -0.020198 0.117180
vt 0.018413 0.150591
vt 0.210089 0.190001
vt 0.031971 0.190001
vt 0.045530 0.150591
vt 0.084141 0.117180
vt 0.141927 0.094856
vt 0.210089 0.087017
vt 0.210089 0.963678
vt 0.141926 0.955962
vt 0.084141 0.933990
vt 0.045529 0.901106
vt 0.031971 0.862316
vt 0.210089 0.862316
vt 0.031971 0.963678
vt 0.908632 0.190001
vt 0.742010 0.190001
vt 0.742010 0.087017
vt 0.805774 0.094856
vt 0.859830 0.117180
vt 0.895949 0.150591
vt 0.908632 0.862316
vt 0.895949 0.901106
vt 0.859830 0.933990
vt 0.805773 0.955962
vt 0.742010 0.963678
vt 0.742010 0.862316
vt -0.844690 1.840339
vt -0.844690 0.963678
vt -0.172376 0.963678
vt -0.172376 1.840339
vt -0.678068 0.862316
vt -0.844690 0.862316
vt -0.844690 0.190001
vt -0.678068 0.190001
vt 0.031971 0.862316
vt 0.018413 0.901106
vt -0.020198 0.933990
vt -0.077984 0.955962
vt -0.146147 0.963678
vt -0.146147 0.862316
vt -0.172376 0.963678
vt 0.499939 0.963678
vt 0.499939 1.840339
vt 0.499939 1.840339
vt 0.499939 0.963678
vt 1.031850 0.963678
vt 1.031850 1.840339
vt -0.832006 0.150591
vt -0.795887 0.117180
vt -0.741831 0.094856
vt -0.678068 0.087017
vt -0.678068 0.963678
vt -0.741831 0.955962
vt -0.795888 0.933990
vt -0.832007 0.901106
vt 0.908632 0.963678
vt 0.908632 0.087017
vt 1.440544 0.087017
vt 1.440544 0.963678
vt 1.632116 0.963678
vt 1.632116 1.840339
vt 1.593308 1.840339
vt 1.593308 0.963678
vt 1.594851 0.087017
vt 1.594851 0.963678
vt 1.558537 0.963678
vt 1.558537 0.087017
vt 1.504352 0.963678
vt 1.504352 0.087017
vt 1.440544 0.963678
vt 1.440544 0.087017
vt 1.196035 1.840339
vt 1.196035 0.963678
vt 1.264150 0.963678
vt 1.264150 1.840339
vt 1.321800 0.963678
vt 1.321800 1.840339
vt 1.360210 0.963678
vt 1.360210 1.840339
vt 1.553919 1.840339
vt 1.553919 0.963678
vt 1.593307 0.963678
vt 1.593307 1.840339
vt 1.514528 0.963678
vt 1.514528 1.840339
vt 1.450719 1.840339
vt 1.450719 0.963678
vt 1.396529 1.840339
vt 1.396529 0.963678
vt 1.360210 1.840339
vt 1.360210 0.963678
vt 1.553919 0.963678
vt 1.196035 0.963678
vt 1.196035 1.840339
vt 1.127919 1.840339
vt 1.127919 0.963678
vt 1.070265 1.840339
vt 1.070265 0.963678
vt 1.031850 1.840339
vt 1.031850 0.963678
vt 1.633662 0.087017
vt 1.633662 0.963678
vt 1.594851 0.963678
vt 1.594851 0.087017
s 0
usemtl Material
f 14/7/2 10/12/2 56/12/2 59/11/2 58/10/2 57/9/2 55/8/2 3/8/2
f 12/13/2 15/18/2 5/17/2 46/17/2 49/16/2 48/15/2 47/14/2 45/13/2
f 51/19/2 9/19/2 12/19/2 45/19/2
f 2/20/2 36/20/2 39/25/2 38/24/2 37/23/2 35/22/2 22/22/2 19/21/2
f 25/26/2 8/26/2 20/31/2 18/30/2 26/30/2 29/29/2 28/28/2 27/27/2
f 6/32/3 4/35/3 2/34/3 8/33/3
f 11/19/2 60/19/2 56/19/2 10/19/2
f 15/18/2 14/7/2 3/8/2 5/17/2
f 41/19/2 17/19/2 22/19/2 35/19/2
f 21/19/2 30/19/2 26/19/2 18/19/2
f 1/35/4 7/48/4 5/47/4 3/46/4
f 61/19/2 1/19/2 3/19/2 55/19/2
f 18/30/2 20/31/2 15/18/2 12/13/2
f 20/31/2 19/21/2 14/7/2 15/18/2
f 7/19/2 50/19/2 46/19/2 5/19/2
f 17/49/5 11/52/5 10/51/5 22/50/5
f 19/21/2 22/22/2 10/12/2 14/7/2
f 4/19/2 40/19/2 36/19/2 2/19/2
f 8/26/2 2/20/2 19/21/2 20/31/2
f 9/61/6 21/64/6 18/63/6 12/62/6
f 25/65/7 27/68/7 34/67/7 31/66/7
f 27/69/8 28/72/8 33/71/8 34/70/8
f 28/72/9 29/74/9 32/73/9 33/71/9
f 29/74/10 26/76/10 30/75/10 32/73/10
f 60/77/11 62/80/11 59/79/11 56/78/11
f 62/80/12 63/82/12 58/81/12 59/79/12
f 63/82/13 64/84/13 57/83/13 58/81/13
f 64/85/14 61/88/14 55/87/14 57/86/14
f 35/89/15 37/92/15 44/91/15 41/90/15
f 37/92/16 38/94/16 43/93/16 44/91/16
f 38/94/17 39/96/17 42/95/17 43/93/17
f 39/97/18 36/89/18 40/90/18 42/85/18
f 45/98/19 47/101/19 54/100/19 51/99/19
f 47/101/20 48/103/20 53/102/20 54/100/20
f 48/103/21 49/105/21 52/104/21 53/102/21
f 49/106/22 46/109/22 50/108/22 52/107/22
f 31/19/2 6/19/2 8/19/2 25/19/2
usemtl Material.001
f 1/1/1 61/1/1 64/6/1 63/5/1 62/4/1 60/3/1 11/3/1 13/2/1
f 24/36/1 23/39/1 4/38/1 6/37/1
f 50/40/1 7/40/1 16/45/1 9/44/1 51/44/1 54/43/1 53/42/1 52/41/1
f 7/40/1 1/1/1 13/2/1 16/45/1
f 23/39/1 17/56/1 41/56/1 44/55/1 43/54/1 42/53/1 40/38/1 4/38/1
f 21/57/1 24/36/1 6/37/1 31/37/1 34/60/1 33/59/1 32/58/1 30/57/1
f 9/44/1 16/45/1 24/36/1 21/57/1
f 16/45/1 13/2/1 23/39/1 24/36/1
f 13/2/1 11/3/1 17/56/1 23/39/1
